{"title":"[MARATHI] Kholi No. 5 XViD MP4 YTRip (RRG)","uid":7989307,"size":359459801,"categoryP":"video","categoryS":"movies","magnet":"?xt=urn:btih:f19fd514c24c2789292a97f4887b8aeb10e122af&amp;dn=%5BMARATHI%5D+Kholi+No.+5+XViD+MP4+YTRip+%28RRG%29&amp;tr=udp%3A%2F%2Ftracker.openbittorrent.com%3A80&amp;tr=udp%3A%2F%2Fopen.demonii.com%3A1337&amp;tr=udp%3A%2F%2Ftracker.coppersurfer.tk%3A6969&amp;tr=udp%3A%2F%2Fexodus.desync.com%3A6969","seeders":1,"leechers":0,"uploader":"SJonam","files":1,"time":1357373947,"description":" &lt;a href=&quot;http://desibbrg.org/images/66952052392581364616.gif&quot; rel=&quot;nofollow&quot; target=&quot;_NEW&quot;&gt;http://desibbrg.org/images/66952052392581364616.gif&lt;/a&gt; &lt;a href=&quot;\nhttp://desibbrg.org/images/13383768981169464336.jpg&quot; rel=&quot;nofollow&quot; target=&quot;_NEW&quot;&gt;\nhttp://desibbrg.org/images/13383768981169464336.jpg&lt;/a&gt; &lt;a href=&quot;\nhttp://desibbrg.org/images/09653430453572571005.jpg&quot; rel=&quot;nofollow&quot; target=&quot;_NEW&quot;&gt;\nhttp://desibbrg.org/images/09653430453572571005.jpg&lt;/a&gt; &lt;a href=&quot;\nhttp://desibbrg.org/images/88572169572678881730.jpg&quot; rel=&quot;nofollow&quot; target=&quot;_NEW&quot;&gt;\nhttp://desibbrg.org/images/88572169572678881730.jpg&lt;/a&gt; &lt;a href=&quot;\nhttp://desibbrg.org/images/96490077317485358119.jpg&quot; rel=&quot;nofollow&quot; target=&quot;_NEW&quot;&gt;\nhttp://desibbrg.org/images/96490077317485358119.jpg&lt;/a&gt; &lt;a href=&quot;\nhttp://desibbrg.org/images/34188019854494827985.jpg&quot; rel=&quot;nofollow&quot; target=&quot;_NEW&quot;&gt;\nhttp://desibbrg.org/images/34188019854494827985.jpg&lt;/a&gt;\n\nInfo - \nStarring: Kishori Ambiye, Vijay Chavan, Rohan Jaywant. \n\nDirector: Nikhil Mehendale. \n\nSynopsis: Four bachelors; Vaman, Bajrang, Vasant and Tukaram share a room in a chawl owned by the brut landlord, Mr. Vaag. Vaag wants Vaman to marry his daughter so that the other three men can be driven out of the chawl. Faced with a possible eviction, Bajrang, Vasant and Tukaram device a scheme to foil Mr. Vaag's plan. The house maid Saku Bai, Vasant's girlfriend Kamal and Vaman's Nana all get sucked into their crazy scheme which spins out of control leading to hilarious situations. Wacky events follow suit when a thug wants to kill Tukaram, Kamal thinks Vasant is cheating on her, and Vaman is blamed of having an affair with Bajrang's sister. What is leading to all the chaos? Is someone executing a counter plan? Can the three men save themselves from being dislodged?\n\nMedia Info - \nGeneral\nFormat                         : MPEG-4\nFormat profile                 : Base Media / Version 2\nCodec ID                       : mp42\nFile size                      : 343 MiB\nDuration                       : 1h 27mn\nOverall bit rate mode          : Variable\nOverall bit rate               : 548 Kbps\n\nVideo\nID                             : 1\nFormat                         : AVC\nFormat/Info                    : Advanced Video Codec\nFormat profile                 : &lt;a class=&quot;__cf_email__&quot; href=&quot;/cdn-cgi/l/email-protection&quot; data-cfemail=&quot;87c5e6f4e2ebeee9e2c7cbb5a9b6&quot;&gt;[email&amp;#160;protected]&lt;/a&gt;&lt;script cf-hash='f9e31' type=&quot;text/javascript&quot;&gt;\n/* &lt;![CDATA[ */!function(){try{var t=&quot;currentScript&quot;in document?document.currentScript:function(){for(var t=document.getElementsByTagName(&quot;script&quot;),e=t.length;e--;)if(t[e].getAttribute(&quot;cf-hash&quot;))return t[e]}();if(t&amp;&amp;t.previousSibling){var e,r,n,i,c=t.previousSibling,a=c.getAttribute(&quot;data-cfemail&quot;);if(a){for(e=&quot;&quot;,r=parseInt(a.substr(0,2),16),n=2;a.length-n;n+=2)i=parseInt(a.substr(n,2),16)^r,e+=String.fromCharCode(i);e=document.createTextNode(e),c.parentNode.replaceChild(e,c)}}}catch(u){}}();/* ]]&gt; */&lt;/script&gt;\nFormat settings, CABAC         : No\nFormat settings, ReFrames      : 1 frame\nCodec ID                       : avc1\nCodec ID/Info                  : Advanced Video Coding\nDuration                       : 1h 27mn\nBit rate                       : 452 Kbps\nMaximum bit rate               : 1 008 Kbps\nWidth                          : 480 pixels\nHeight                         : 360 pixels\nDisplay aspect ratio           : 4:3\nFrame rate mode                : Constant\nFrame rate                     : 25.000 fps\nColor space                    : YUV\nChroma subsampling             : 4:2:0\nBit depth                      : 8 bits\nScan type                      : Progressive\nBits/(Pixel*Frame)             : 0.105\nStream size                    : 283 MiB (82%)\n\nAudio\nID                             : 2\nFormat                         : AAC\nFormat/Info                    : Advanced Audio Codec\nFormat profile                 : LC\nCodec ID                       : 40\nDuration                       : 1h 27mn\nBit rate mode                  : Variable\nBit rate                       : 93.8 Kbps\nMaximum bit rate               : 136 Kbps\nChannel(s)                     : 2 channels\nChannel positions              : Front: L R\nSampling rate                  : 44.1 KHz\nCompression mode               : Lossy\nStream size                    : 58.6 MiB (17%)\n\nRipper : SaketSaket\n\nSeeding 24x7... Extreme Seeding...\n\n\nEnjoy!\n","torrent":{"xt":"urn:btih:f19fd514c24c2789292a97f4887b8aeb10e122af","amp;dn":"%5BMARATHI%5D+Kholi+No.+5+XViD+MP4+YTRip+%28RRG%29","amp;tr":["udp%3A%2F%2Ftracker.openbittorrent.com%3A80","udp%3A%2F%2Fopen.demonii.com%3A1337","udp%3A%2F%2Ftracker.coppersurfer.tk%3A6969","udp%3A%2F%2Fexodus.desync.com%3A6969"],"infoHash":"f19fd514c24c2789292a97f4887b8aeb10e122af","infoHashBuffer":{"type":"Buffer","data":[241,159,213,20,194,76,39,137,41,42,151,244,136,123,138,235,16,225,34,175]},"announce":[],"urlList":[]}}